<svg xmlns="http://www.w3.org/2000/svg" xmlns:xlink="http://www.w3.org/1999/xlink" width="120" height="31.253" viewBox="0 0 120 31.253">
  <defs>
    <clipPath id="clip-path">
      <rect id="Rechteck_2" data-name="Rechteck 2" width="120" height="31.253" fill="#fff"/>
    </clipPath>
  </defs>
  <g id="cons_Logo" data-name="cons Logo" clip-path="url(#clip-path)">
    <path id="Pfad_3" data-name="Pfad 3" d="M56.365,26.6c-1.809,0-4.065-.972-4.065-4.638s2.24-4.622,4.065-4.622a3.854,3.854,0,0,1,2.988,1.219l-1.528,1.529a1.824,1.824,0,0,0-1.46-.711,1.561,1.561,0,0,0-1.285.577,3.059,3.059,0,0,0-.5,2,3.191,3.191,0,0,0,.5,2.033,1.565,1.565,0,0,0,1.285.593,1.829,1.829,0,0,0,1.46-.711l1.528,1.512A3.875,3.875,0,0,1,56.365,26.6" transform="translate(-19.153 -6.348)" fill="#fff"/>
    <path id="Pfad_4" data-name="Pfad 4" d="M69.514,19.77a1.428,1.428,0,0,0-1.061-.407,1.387,1.387,0,0,0-1.044.407,3.064,3.064,0,0,0-.52,2.191,3.117,3.117,0,0,0,.52,2.207,1.393,1.393,0,0,0,1.044.406,1.429,1.429,0,0,0,1.061-.406,3.112,3.112,0,0,0,.52-2.207,3.07,3.07,0,0,0-.52-2.191M71.27,25.49A3.756,3.756,0,0,1,68.453,26.6a3.691,3.691,0,0,1-2.8-1.109c-.813-.854-1.029-1.878-1.029-3.528s.207-2.659,1.029-3.509a3.706,3.706,0,0,1,2.8-1.114,3.766,3.766,0,0,1,2.817,1.114c.813.849,1.024,1.879,1.024,3.509s-.211,2.675-1.024,3.528" transform="translate(-23.668 -6.349)" fill="#fff"/>
    <path id="Pfad_5" data-name="Pfad 5" d="M84.806,26.5V21.02a1.509,1.509,0,1,0-3,0V26.5h-2.28V17.439h2.2v.813a3.111,3.111,0,0,1,2.268-.919,2.926,2.926,0,0,1,2.138.813,3.354,3.354,0,0,1,.923,2.573V26.5Z" transform="translate(-29.122 -6.347)" fill="#fff"/>
    <path id="Pfad_6" data-name="Pfad 6" d="M97.72,26.6a4.933,4.933,0,0,1-3.858-1.3l1.48-1.48a3.283,3.283,0,0,0,2.419.854c.781,0,1.6-.26,1.6-.935,0-.451-.244-.764-.955-.838l-1.436-.142c-1.626-.155-2.642-.866-2.642-2.536,0-1.878,1.65-2.886,3.492-2.886a4.818,4.818,0,0,1,3.464,1.061L99.891,19.8a3.163,3.163,0,0,0-2.11-.606c-.906,0-1.288.407-1.288.87,0,.329.138.711.939.78l1.427.143c1.789.17,2.691,1.126,2.691,2.659,0,2-1.7,2.951-3.838,2.951" transform="translate(-34.373 -6.348)" fill="#fff"/>
    <path id="Pfad_7" data-name="Pfad 7" d="M111.114,24.641a2.439,2.439,0,0,1-2.639-2.221,2.513,2.513,0,0,1,0-.372V17.576h-.955V15.844h.955V12.267h2.26v3.577h1.6v1.72h-1.585v4.345c0,.52.244.813.78.813h.813v1.91Z" transform="translate(-39.374 -4.493)" fill="#fff"/>
    <path id="Pfad_8" data-name="Pfad 8" d="M123.276,19.921a1.522,1.522,0,0,0-2.679,1.126v5.459h-2.26V17.45h2.228v.887a3.063,3.063,0,0,1,2.272-.972,2.732,2.732,0,0,1,2.138.854Z" transform="translate(-43.337 -6.358)" fill="#fff"/>
    <path id="Pfad_9" data-name="Pfad 9" d="M135.45,26.558V25.7a3.1,3.1,0,0,1-2.26.939,2.949,2.949,0,0,1-2.138-.813,3.35,3.35,0,0,1-.918-2.569V17.5h2.26v5.475a1.509,1.509,0,1,0,3,0V17.5h2.26v9.057Z" transform="translate(-47.653 -6.409)" fill="#fff"/>
    <path id="Pfad_10" data-name="Pfad 10" d="M150.847,24.641l-2.223-3.772-.956,1.073v2.7H145.4V12.267h2.264v7.02l3-3.7H153.4l-3.232,3.651,3.476,5.406Z" transform="translate(-53.249 -4.493)" fill="#fff"/>
    <path id="Pfad_11" data-name="Pfad 11" d="M163.136,24.641a2.437,2.437,0,0,1-2.622-2.59V17.58h-.955V15.844h.955V12.267h2.26v3.577h1.6v1.72h-1.6v4.345c0,.52.244.813.781.813h.813v1.91Z" transform="translate(-58.433 -4.493)" fill="#fff"/>
    <path id="Pfad_12" data-name="Pfad 12" d="M170.371,15.584h2.256v9.057h-2.256Zm-.037-3.317h2.309v1.841h-2.309Z" transform="translate(-62.378 -4.493)" fill="#fff"/>
    <path id="Pfad_13" data-name="Pfad 13" d="M182.085,17.5l-1.825,5.6-1.837-5.6h-2.386l3.338,9.057h1.772l3.322-9.057Z" transform="translate(-64.467 -6.409)" fill="#fff"/>
    <path id="Pfad_14" data-name="Pfad 14" d="M14.124,23.876a8.26,8.26,0,1,1,8.256-8.264v.024a8.256,8.256,0,0,1-8.256,8.24m11.52-7.565-1.2-.675,1.2-.695A5.163,5.163,0,0,0,20.485,6l-1.219.691V5.307a5.163,5.163,0,0,0-10.321-.29c0,.1,0,.193,0,.29V6.693L7.746,6a5.163,5.163,0,0,0-5.163,8.943l1.216.691-1.2.675a5.163,5.163,0,0,0,5.163,8.943l1.2-.695v1.386a5.163,5.163,0,1,0,10.321.29c0-.1,0-.193,0-.29V24.559l1.219.695a5.162,5.162,0,0,0,5.283-8.871l-.124-.072" transform="translate(0 0)" fill="#fff"/>
    <path id="Pfad_15" data-name="Pfad 15" d="M20.442,26.6c-1.809,0-4.065-.972-4.065-4.638s2.239-4.622,4.065-4.622a3.854,3.854,0,0,1,2.988,1.219L21.9,20.086a1.824,1.824,0,0,0-1.46-.711,1.569,1.569,0,0,0-1.285.577,3.083,3.083,0,0,0-.5,2,3.241,3.241,0,0,0,.5,2.033,1.568,1.568,0,0,0,1.288.593,1.828,1.828,0,0,0,1.46-.711l1.529,1.512A3.878,3.878,0,0,1,20.446,26.6" transform="translate(-5.997 -6.348)" fill="#fff"/>
  </g>
</svg>
